<?xml version="1.0" encoding="iso-8859-1"?>
<!-- Uploaded to: SVG Repo, www.svgrepo.com, Generator: SVG Repo Mixer Tools -->
<svg fill="#d55448" height="800px" width="800px" version="1.1" id="Layer_1" xmlns="http://www.w3.org/2000/svg" xmlns:xlink="http://www.w3.org/1999/xlink" 
	 viewBox="0 0 512.139 512.139" xml:space="preserve">
<g transform="translate(-1)">
	<g>
		<g>
			<path d="M506.891,63.546L449.653,6.309c-8.327-8.327-21.825-8.332-30.158-0.012l-82.432,82.304
				c-7.084,7.073-8.132,17.875-3.191,26.081l-72.029,72.045c-42.839-23.954-90.39-24.078-119.4,4.907
				c-11.332,11.351-18.339,25.789-21.036,41.921c-33.53-1.333-64.875,9.665-87.706,32.497
				c-50.209,50.183-41.134,137.857,17.173,196.165c58.274,58.299,145.95,67.367,196.143,17.173
				c22.83-22.83,33.828-54.187,32.497-87.721c16.14-2.693,30.576-9.698,41.914-21.036c29.004-29.004,28.88-76.553,4.93-119.405
				l72.029-72.029c8.196,4.938,18.985,3.899,26.061-3.166l82.432-82.304C515.221,85.398,515.227,71.882,506.891,63.546z
				 M284.111,233.133c-7.388,7.388-8.338,19.039-2.245,27.526c22.387,31.184,24.838,64.356,9.392,79.802
				c-7.488,7.488-19.102,10.939-33.685,9.474c-14.416-1.448-26.052,11.589-22.98,25.749c6.321,29.14-0.164,55.953-17.746,73.534
				c-31.989,31.989-92.966,25.682-135.8-17.17c-42.867-42.867-49.179-103.842-17.18-135.824c17.587-17.587,44.38-24.07,73.517-17.75
				c14.16,3.071,27.197-8.564,25.749-22.98c-1.463-14.564,1.997-26.194,9.487-33.697c15.437-15.423,48.615-12.971,79.783,9.421
				c8.488,6.098,20.144,5.149,27.534-2.242l83.646-83.664l2.088,2.088l2.087,2.088L284.111,233.133z M409.386,130.777
				l-13.482-13.482l-13.585-13.585l52.239-52.158l27.067,27.067L409.386,130.777z"/>
			<path d="M165.566,304.965c-8.331-8.331-21.839-8.331-30.17,0l-42.667,42.667c-8.331,8.331-8.331,21.839,0,30.17
				c8.331,8.331,21.839,8.331,30.17,0l42.667-42.667C173.897,326.803,173.897,313.296,165.566,304.965z"/>
			<path d="M178.063,347.631l-42.667,42.667c-8.331,8.331-8.331,21.839,0,30.17c8.331,8.331,21.839,8.331,30.17,0l42.667-42.667
				c8.331-8.331,8.331-21.839,0-30.17C199.902,339.3,186.394,339.3,178.063,347.631z"/>
		</g>
	</g>
</g>
</svg>